<svg width="15" height="15" viewBox="0 0 15 15" fill="none" xmlns="http://www.w3.org/2000/svg">
<g clip-path="url(#clip0_262_2021)">
<path fill-rule="evenodd" clip-rule="evenodd" d="M10 4.21875C9.56853 4.21875 9.21875 4.56853 9.21875 5C9.21875 5.43147 9.56853 5.78125 10 5.78125C10.4315 5.78125 10.7812 5.43147 10.7812 5C10.7812 4.56853 10.4315 4.21875 10 4.21875ZM8.28125 5C8.28125 4.05076 9.05076 3.28125 10 3.28125C10.9492 3.28125 11.7188 4.05076 11.7188 5C11.7188 5.94924 10.9492 6.71875 10 6.71875C9.05076 6.71875 8.28125 5.94924 8.28125 5Z" fill="white"/>
<path fill-rule="evenodd" clip-rule="evenodd" d="M7.46414 0.78125H7.53586C8.97861 0.781242 10.1093 0.781236 10.9914 0.899842C11.8944 1.02124 12.6069 1.27458 13.1662 1.83384C13.7254 2.39309 13.9788 3.10561 14.1002 4.00857C14.2188 4.89075 14.2188 6.0214 14.2188 7.46414V7.53586C14.2188 8.97861 14.2188 10.1093 14.1002 10.9914C13.9788 11.8944 13.7254 12.6069 13.1662 13.1662C12.6069 13.7254 11.8944 13.9788 10.9914 14.1002C10.1093 14.2188 8.97861 14.2188 7.53586 14.2188H7.46414C6.0214 14.2188 4.89075 14.2188 4.00857 14.1002C3.10561 13.9788 2.39309 13.7254 1.83384 13.1662C1.27458 12.6069 1.02124 11.8944 0.899842 10.9914C0.781236 10.1093 0.781242 8.97861 0.78125 7.53586V7.46414C0.781242 6.02139 0.781236 4.89075 0.899842 4.00857C1.02124 3.10561 1.27458 2.39309 1.83384 1.83384C2.39309 1.27458 3.10561 1.02124 4.00857 0.899842C4.89075 0.781236 6.02139 0.781242 7.46414 0.78125ZM2.49675 12.5033C2.14071 12.1472 1.9364 11.6655 1.82898 10.8665C1.73306 10.153 1.7206 9.24283 1.71899 8.02508L2.65341 7.20747C3.03724 6.87162 3.61572 6.89089 3.97635 7.25152L6.65743 9.9326C7.24801 10.5232 8.17769 10.6037 8.86103 10.1235L9.0474 9.99249C9.58377 9.61554 10.3094 9.65921 10.7967 10.0978L12.8114 11.911C12.8333 11.9307 12.8566 11.948 12.8809 11.9629C12.7799 12.1759 12.6554 12.3511 12.5033 12.5033C12.1472 12.8593 11.6655 13.0636 10.8665 13.171C10.054 13.2803 8.98639 13.2812 7.5 13.2812C6.01361 13.2812 4.94597 13.2803 4.13349 13.171C3.33448 13.0636 2.85278 12.8593 2.49675 12.5033ZM4.13349 1.82898C3.33448 1.9364 2.85278 2.14071 2.49675 2.49675C2.14071 2.85278 1.9364 3.33448 1.82898 4.13349C1.73827 4.80817 1.7222 5.6588 1.71936 6.77904L2.03607 6.50192C2.79133 5.84107 3.92963 5.87898 4.63926 6.58861L7.32034 9.26968C7.58879 9.53813 8.01137 9.57474 8.32198 9.35644L8.50835 9.22546C9.40229 8.59722 10.6117 8.67001 11.4239 9.40093L13.1576 10.9613C13.1622 10.9302 13.1667 10.8986 13.171 10.8665C13.2803 10.054 13.2812 8.98639 13.2812 7.5C13.2812 6.01361 13.2803 4.94597 13.171 4.13349C13.0636 3.33448 12.8593 2.85278 12.5033 2.49675C12.1472 2.14071 11.6655 1.9364 10.8665 1.82898C10.054 1.71975 8.98639 1.71875 7.5 1.71875C6.01361 1.71875 4.94597 1.71975 4.13349 1.82898Z" fill="white"/>
</g>
<defs>
<clipPath id="clip0_262_2021">
<rect width="15" height="15" fill="white"/>
</clipPath>
</defs>
</svg>
